<?xml version="1.0" encoding="UTF-8"?>
<svg width="127px" height="53px" viewBox="0 0 127 53" version="1.1" xmlns="http://www.w3.org/2000/svg" xmlns:xlink="http://www.w3.org/1999/xlink">
    <title>logo/center/dark</title>
    <defs>
        <polyline id="path-1" points="126.688234 13.344976 103.836729 0.175112 92.2045485 6.856504 92.1697191 6.836152 22.9275351 46.645088 5.46227425 36.578904 5.46227425 16.4512 17.541291 9.48912 17.541291 36.602648 22.9275351 39.7076 22.9275351 6.38968 22.9228629 6.38756 22.9275351 6.384592 28.3133545 9.499296 28.3133545 36.694656 33.6991739 33.384064 33.6991739 12.614 39.0854181 15.728704 39.0854181 30.073048 44.4712375 26.762456 44.4712375 18.843408 51.1096421 22.68188 56.3230134 19.477712 22.9275351 0.176808 17.54299 3.280064 17.541291 3.279216 0.0764548495 13.34328 0.0764548495 39.686824 17.541291 49.750888 17.54299 49.75004 22.9275351 52.853296 36.691107 44.938912 103.837154 6.382896 121.30199 16.449504 121.30199 36.5806 103.849472 46.639576 75.6240401 30.372392 70.2382207 33.476496 103.836729 52.840576 103.836729 52.854992 103.849472 52.847784 103.861789 52.854992 103.861789 52.840576 126.688234 39.685128 126.688234 13.344976"></polyline>
        <linearGradient x1="1.28338802%" y1="50.0004024%" x2="97.6468536%" y2="50.0004024%" id="linearGradient-3">
            <stop stop-color="#152036" offset="0%"></stop>
            <stop stop-color="#37619E" offset="100%"></stop>
        </linearGradient>
        <polyline id="path-4" points="5.88087755 15.7127908 5.88087755 2.07570022 3.65751361 0.232999799 0.360697279 2.07570022 0.360697279 24.7197026 3.65751361 26.563255 5.88087755 24.7197026 5.88087755 15.7127908"></polyline>
        <linearGradient x1="-1821.96886%" y1="50%" x2="425.828312%" y2="50%" id="linearGradient-6">
            <stop stop-color="#152036" offset="0%"></stop>
            <stop stop-color="#37619E" offset="100%"></stop>
        </linearGradient>
        <polyline id="path-7" points="5.82601701 7.17919472 5.82601701 3.41852141 0.305836735 0.240662537 0.305836735 19.9724212 5.82601701 16.7945623 5.82601701 7.17919472"></polyline>
        <linearGradient x1="-1993.13248%" y1="50%" x2="254.664684%" y2="50%" id="linearGradient-9">
            <stop stop-color="#152036" offset="0%"></stop>
            <stop stop-color="#37619E" offset="100%"></stop>
        </linearGradient>
        <polyline id="path-10" points="5.9357381 6.73051208 5.9357381 0.349226697 0.415557823 3.5174557 0.415557823 15.4073867 5.9357381 18.5751887 5.9357381 6.73051208"></polyline>
        <linearGradient x1="-1650.80523%" y1="50.0011712%" x2="596.99194%" y2="50.0011712%" id="linearGradient-12">
            <stop stop-color="#152036" offset="0%"></stop>
            <stop stop-color="#37619E" offset="100%"></stop>
        </linearGradient>
    </defs>
    <g id="LP-Mobile" stroke="none" stroke-width="1" fill="none" fill-rule="evenodd">
        <g id="Home/Temp" transform="translate(-18.000000, -93.000000)">
            <g id="logo/center/dark" transform="translate(18.000000, 93.000000)">
                <g id="Group">
                    <g id="Group-3">
                        <mask id="mask-2" fill="white">
                            <use xlink:href="#path-1"></use>
                        </mask>
                        <g id="Clip-2"></g>
                        <polyline id="Fill-1" fill="url(#linearGradient-3)" mask="url(#mask-2)" points="126.688234 13.344976 103.836729 0.175112 92.2045485 6.856504 92.1697191 6.836152 22.9275351 46.645088 5.46227425 36.578904 5.46227425 16.4512 17.541291 9.48912 17.541291 36.602648 22.9275351 39.7076 22.9275351 6.38968 22.9228629 6.38756 22.9275351 6.384592 28.3133545 9.499296 28.3133545 36.694656 33.6991739 33.384064 33.6991739 12.614 39.0854181 15.728704 39.0854181 30.073048 44.4712375 26.762456 44.4712375 18.843408 51.1096421 22.68188 56.3230134 19.477712 22.9275351 0.176808 17.54299 3.280064 17.541291 3.279216 0.0764548495 13.34328 0.0764548495 39.686824 17.541291 49.750888 17.54299 49.75004 22.9275351 52.853296 36.691107 44.938912 103.837154 6.382896 121.30199 16.449504 121.30199 36.5806 103.849472 46.639576 75.6240401 30.372392 70.2382207 33.476496 103.836729 52.840576 103.836729 52.854992 103.849472 52.847784 103.861789 52.854992 103.861789 52.840576 126.688234 39.685128 126.688234 13.344976"></polyline>
                    </g>
                    <g id="Group-6" transform="translate(100.121693, 12.746835)">
                        <mask id="mask-5" fill="white">
                            <use xlink:href="#path-4"></use>
                        </mask>
                        <g id="Clip-5"></g>
                        <polyline id="Fill-4" fill="url(#linearGradient-6)" mask="url(#mask-5)" points="5.88087755 15.7127908 5.88087755 2.07570022 3.65751361 0.232999799 0.360697279 2.07570022 0.360697279 24.7197026 3.65751361 26.563255 5.88087755 24.7197026 5.88087755 15.7127908"></polyline>
                    </g>
                    <g id="Group-9" transform="translate(109.529101, 16.101266)">
                        <mask id="mask-8" fill="white">
                            <use xlink:href="#path-7"></use>
                        </mask>
                        <g id="Clip-8"></g>
                        <polyline id="Fill-7" fill="url(#linearGradient-9)" mask="url(#mask-8)" points="5.82601701 7.17919472 5.82601701 3.41852141 0.305836735 0.240662537 0.305836735 19.9724212 5.82601701 16.7945623 5.82601701 7.17919472"></polyline>
                    </g>
                    <g id="Group-12" transform="translate(90.714286, 16.772152)">
                        <mask id="mask-11" fill="white">
                            <use xlink:href="#path-10"></use>
                        </mask>
                        <g id="Clip-11"></g>
                        <polyline id="Fill-10" fill="url(#linearGradient-12)" mask="url(#mask-11)" points="5.9357381 6.73051208 5.9357381 0.349226697 0.415557823 3.5174557 0.415557823 15.4073867 5.9357381 18.5751887 5.9357381 6.73051208"></polyline>
                    </g>
                </g>
            </g>
        </g>
    </g>
</svg>